<?xml version="1.0" standalone="no"?>
<!DOCTYPE svg PUBLIC "-//W3C//DTD SVG 20010904//EN"
 "http://www.w3.org/TR/2001/REC-SVG-20010904/DTD/svg10.dtd">
<svg version="1.0" xmlns="http://www.w3.org/2000/svg"
 width="24.000000pt" height="24.000000pt" viewBox="0 0 24.000000 24.000000"
 preserveAspectRatio="xMidYMid meet">

<g transform="translate(0.000000,24.000000) scale(0.100000,-0.100000)"
fill="#000000" stroke="none">
<path d="M34 196 c-3 -8 -4 -42 -2 -76 1 -33 0 -60 -4 -60 -5 0 -8 -4 -8 -10
0 -6 40 -10 100 -10 60 0 100 4 100 10 0 6 -3 10 -7 10 -5 0 -8 33 -8 72 l0
73 -83 3 c-66 2 -83 0 -88 -12z m156 -61 l0 -55 -70 0 -70 0 0 55 0 55 70 0
70 0 0 -55z"/>
</g>
</svg>
